<?xml version="1.0" encoding="UTF-8"?>
<svg width="42px" height="30px" viewBox="0 0 42 30" version="1.1" xmlns="http://www.w3.org/2000/svg" xmlns:xlink="http://www.w3.org/1999/xlink">
    <!-- Generator: Sketch 51.1 (57501) - http://www.bohemiancoding.com/sketch -->
    <title>add-user-button</title>
    <desc>Created with Sketch.</desc>
    <defs></defs>
    <g id="Page-1" stroke="none" stroke-width="1" fill="none" fill-rule="evenodd">
        <g id="Home-page" transform="translate(-1313.000000, -135.000000)" fill="#07393C" fill-rule="nonzero">
            <g id="add-user-button" transform="translate(1313.000000, 135.000000)">
                <path d="M26.1858191,15 C30.3007335,15 33.6674817,11.6332518 33.6674817,7.51833741 C33.6674817,3.40342298 30.3007335,0.0366748166 26.1858191,0.0366748166 C22.0709046,0.0366748166 18.7041565,3.40342298 18.7041565,7.51833741 C18.7041565,11.6332518 22.0709046,15 26.1858191,15 Z M9.35207824,11.2591687 L9.35207824,5.64792176 L5.61124694,5.64792176 L5.61124694,11.2591687 L0,11.2591687 L0,15 L5.61124694,15 L5.61124694,20.6112469 L9.35207824,20.6112469 L9.35207824,15 L14.9633252,15 L14.9633252,11.2591687 L9.35207824,11.2591687 Z M26.1858191,18.7408313 C21.1356968,18.7408313 11.2224939,21.1723716 11.2224939,26.2224939 L11.2224939,29.9633252 L41.1491443,29.9633252 L41.1491443,26.2224939 C41.1491443,21.1723716 31.2359413,18.7408313 26.1858191,18.7408313 Z" id="Shape"></path>
            </g>
        </g>
    </g>
</svg>