<?xml version="1.0" encoding="UTF-8"?>
<svg width="29px" height="31px" viewBox="0 0 29 31" version="1.1" xmlns="http://www.w3.org/2000/svg" xmlns:xlink="http://www.w3.org/1999/xlink">
    <!-- Generator: Sketch 51.1 (57501) - http://www.bohemiancoding.com/sketch -->
    <title>phone-book</title>
    <desc>Created with Sketch.</desc>
    <defs></defs>
    <g id="Page-1" stroke="none" stroke-width="1" fill="none" fill-rule="evenodd">
        <g id="Home-page" transform="translate(-231.000000, -36.000000)" fill="#FFFFFF" fill-rule="nonzero">
            <g id="Contacts" transform="translate(231.000000, 30.000000)">
                <g id="phone-book" transform="translate(0.000000, 6.000000)">
                    <polygon id="Shape" points="2.66985646 6.73061099 0.315243301 6.73061099 0.315243301 8.77456703 2.66985646 8.77456703 2.66985646 14.478022 0 14.478022 0 16.521978 2.66985646 16.521978 2.66985646 22.225433 0 22.225433 0 24.269389 2.66985646 24.269389 2.66985646 31 7.34210526 31 7.34210526 0 2.66985646 0"></polygon>
                    <path d="M9.38157895,0 L9.38157895,31 L28.9605263,31 L28.9605263,0 L9.38157895,0 Z M19.1710526,9.25653187 C20.8457053,9.25653187 22.2032476,10.6028857 22.2032476,12.2637363 C22.2032476,13.9245868 20.8457053,15.2709407 19.1710526,15.2709407 C17.4964,15.2709407 16.1388576,13.9245868 16.1388576,12.2637363 C16.1388576,10.6028857 17.4964,9.25653187 19.1710526,9.25653187 Z M13.6752078,21.7434681 C13.6752078,18.7331978 16.1357662,16.2929187 19.1710526,16.2929187 C22.2063391,16.2929187 24.6668975,18.7331978 24.6668975,21.7434681 L13.6752078,21.7434681 Z" id="Shape"></path>
                </g>
            </g>
        </g>
    </g>
</svg>