<?xml version="1.0" encoding="UTF-8"?>
<svg width="40px" height="40px" viewBox="0 0 40 40" version="1.1" xmlns="http://www.w3.org/2000/svg" xmlns:xlink="http://www.w3.org/1999/xlink">
    <!-- Generator: Sketch 51.1 (57501) - http://www.bohemiancoding.com/sketch -->
    <title>settings-work-tool</title>
    <desc>Created with Sketch.</desc>
    <defs></defs>
    <g id="Page-1" stroke="none" stroke-width="1" fill="none" fill-rule="evenodd">
        <g id="Home-page" transform="translate(-1378.000000, -130.000000)" fill="#07393C" fill-rule="nonzero">
            <g id="settings-work-tool" transform="translate(1378.000000, 130.000000)">
                <path d="M39.8394052,17.7637175 C39.7762082,17.2019331 39.1211896,16.779777 38.5547955,16.779777 C36.7235688,16.779777 35.0985874,15.7045353 34.4171004,14.0416357 C33.7208922,12.3384387 34.1698141,10.352119 35.5345725,9.10022305 C35.9641636,8.70750929 36.0163569,8.05011152 35.6560595,7.59345725 C34.7188104,6.40327138 33.6535316,5.32817844 32.4904089,4.39643123 C32.0349442,4.03092937 31.3666914,4.08178439 30.9717472,4.51910781 C29.7806691,5.83821561 27.6411896,6.32847584 25.9879554,5.63866171 C24.2675093,4.91494424 23.1826022,3.17159851 23.2887732,1.30022305 C23.3237175,0.712416357 22.8941264,0.20133829 22.3081041,0.133085502 C20.8154647,-0.0395539033 19.3097398,-0.0449070632 17.8126394,0.121189591 C17.2333086,0.185130112 16.8037175,0.684163569 16.823197,1.26453532 C16.8883271,3.11747212 15.7903346,4.83033457 14.0869888,5.52802974 C12.4535316,6.19524164 10.3290706,5.70914498 9.14037175,4.40178439 C8.74750929,3.97115242 8.09011152,3.91821561 7.63241636,4.27494424 C6.43479554,5.21457249 5.34557621,6.29055762 4.3997026,7.47092937 C4.03078067,7.92981413 4.08505576,8.59494424 4.51895911,8.98973978 C5.90973978,10.2492193 6.35881041,12.2527881 5.63628253,13.9756134 C4.9464684,15.6181413 3.24089219,16.6767286 1.28832714,16.6767286 C0.65472119,16.6563569 0.203420074,17.0816357 0.134126394,17.6576952 C-0.0416356877,19.1589591 -0.0437174721,20.6886245 0.125501859,22.2020818 C0.188252788,22.7662454 0.863197026,23.184684 1.43583643,23.184684 C3.17591078,23.140223 4.84654275,24.2175465 5.54736059,25.922974 C6.24594796,27.626171 5.79687732,29.6113011 4.43003717,30.8642379 C4.00252788,31.2569517 3.94825279,31.9133086 4.30855019,32.3699628 C5.23702602,33.5525651 6.30245353,34.6286989 7.46973978,35.5681784 C7.92758364,35.9371004 8.59375465,35.8850558 8.99063197,35.4477323 C10.186171,34.1253532 12.3255019,33.6359851 13.9721933,34.3271375 C15.6969517,35.0486245 16.7818587,36.7918216 16.6756877,38.6642379 C16.6410409,39.252342 17.0727138,39.7643123 17.6563569,39.8315242 C18.4199257,39.9205948 19.1881041,39.9650558 19.9583643,39.9650558 C20.6895167,39.9650558 21.4208178,39.9249071 22.1519703,39.8435688 C22.7314498,39.7796283 23.1607435,39.2805948 23.1412639,38.6991822 C23.0742007,36.8472862 24.1741264,35.1344238 25.8752416,34.4379182 C27.5197026,33.7662454 29.6352416,34.2578439 30.8240892,35.5638662 C31.2191822,35.9936059 31.8719703,36.0455019 32.3321933,35.6899628 C33.5275836,34.7525651 34.6145725,33.6774721 35.5649071,32.493829 C35.9336803,32.0359851 35.8816357,31.3698141 35.4455019,30.9751673 C34.0547212,29.7156877 33.6034201,27.7118216 34.325948,25.9901859 C35.0052045,24.3695167 36.6474349,23.2813383 38.413829,23.2813383 L38.6609665,23.2877323 C39.2339033,23.3342751 39.7610409,22.8929368 39.8304833,22.3081041 C40.0065428,20.8055019 40.0086245,19.2771747 39.8394052,17.7637175 Z M20.0141264,26.6901115 C16.3385874,26.6901115 13.3488476,23.7003717 13.3488476,20.0248327 C13.3488476,16.3494424 16.3385874,13.3595539 20.0141264,13.3595539 C23.6895167,13.3595539 26.6792565,16.3494424 26.6792565,20.0248327 C26.6792565,23.7003717 23.6895167,26.6901115 20.0141264,26.6901115 Z" id="Shape"></path>
            </g>
        </g>
    </g>
</svg>