<?xml version="1.0" encoding="UTF-8"?>
<svg width="31px" height="31px" viewBox="0 0 31 31" version="1.1" xmlns="http://www.w3.org/2000/svg" xmlns:xlink="http://www.w3.org/1999/xlink">
    <!-- Generator: Sketch 51.1 (57501) - http://www.bohemiancoding.com/sketch -->
    <title>telephone</title>
    <desc>Created with Sketch.</desc>
    <defs></defs>
    <g id="Page-1" stroke="none" stroke-width="1" fill="none" fill-rule="evenodd">
        <g id="Home-page" transform="translate(-448.000000, -36.000000)" fill="#FFFFFF" fill-rule="nonzero">
            <g id="Dialing" transform="translate(448.000000, 30.000000)">
                <g id="telephone" transform="translate(0.000000, 6.000000)">
                    <path d="M23.4112442,20.5771338 C22.4051999,19.5839323 21.1492466,19.5839323 20.1496102,20.5771338 C19.3870671,21.3332485 18.6245239,22.0893632 17.8747967,22.8582935 C17.6697431,23.0697493 17.4967291,23.1146035 17.24682,22.973633 C16.7534097,22.7045074 16.2279598,22.4866439 15.7537733,22.1918873 C13.5430391,20.8014051 11.6911486,19.0136424 10.0507197,17.0016083 C9.23691318,16.001999 8.5128176,14.9319045 8.00659149,13.7272471 C7.90406469,13.4837525 7.92328846,13.3235588 8.12193415,13.1249184 C8.88447728,12.388027 9.62779663,11.6319123 10.3775239,10.8757976 C11.4220157,9.82492625 11.4220157,8.5946379 10.371116,7.53735885 C9.77517891,6.93503018 9.17924185,6.34551701 8.58330478,5.74318834 C7.96814394,5.12804417 7.35939102,4.50649224 6.73782226,3.89775582 C5.73177796,2.91736979 4.47582458,2.91736979 3.47618821,3.90416357 C2.70723716,4.66027828 1.97032573,5.43561625 1.18855883,6.17891547 C0.464463254,6.86454491 0.0992115043,7.7039604 0.0223163991,8.68434643 C-0.0994341842,10.2798766 0.291449267,11.7856983 0.842530855,13.2530735 C1.97032573,16.2903478 3.68764975,18.9880114 5.77022552,21.4614036 C8.58330478,24.80625 11.9410577,27.4526515 15.869116,29.3621616 C17.6377034,30.2208003 19.4703701,30.8807988 21.4632349,30.9897305 C22.834531,31.0666236 24.0264051,30.720605 24.981186,29.6505104 C25.6347944,28.9200267 26.3717058,28.2536205 27.0637617,27.5551756 C28.0890298,26.5171198 28.0954377,25.2612004 27.0765776,24.2359601 C25.8590718,23.0120795 24.635158,21.7946067 23.4112442,20.5771338 Z" id="Shape"></path>
                    <path d="M22.2634662,15.8163265 L24.6734694,15.3958925 C24.2946613,13.1335572 23.2496734,11.0847757 21.6625981,9.45642814 C19.9840864,7.74132438 17.8614548,6.66020839 15.5232945,6.32653061 L15.1836735,8.8024197 C16.9928087,9.06268837 18.6386646,9.8968828 19.9383682,11.2249203 C21.1662289,12.4795488 21.9695633,14.067855 22.2634662,15.8163265 Z" id="Shape"></path>
                    <path d="M26.1090438,5.0961596 C23.3890081,2.30571746 19.9474606,0.543677695 16.1483497,0 L15.8163265,2.4301738 C19.0982475,2.90179782 22.0736857,4.42802557 24.4233879,6.83199803 C26.6517739,9.11806448 28.1139527,12.0067616 28.6439127,15.1836735 L31,14.7710024 C30.3806491,11.0897149 28.6886082,7.74904474 26.1090438,5.0961596 Z" id="Shape"></path>
                </g>
            </g>
        </g>
    </g>
</svg>