<?xml version="1.0" encoding="UTF-8"?>
<svg width="27px" height="22px" viewBox="0 0 27 22" version="1.1" xmlns="http://www.w3.org/2000/svg" xmlns:xlink="http://www.w3.org/1999/xlink">
    <!-- Generator: Sketch 51.1 (57501) - http://www.bohemiancoding.com/sketch -->
    <title>folder-closed-black-shape</title>
    <desc>Created with Sketch.</desc>
    <defs></defs>
    <g id="Page-1" stroke="none" stroke-width="1" fill="none" fill-rule="evenodd">
        <g id="Home-page" transform="translate(-18.000000, -177.000000)" fill="#FFFFFF" fill-rule="nonzero">
            <g id="Folder-Group" transform="translate(0.000000, 103.000000)">
                <g id="Folder" transform="translate(18.000000, 72.000000)">
                    <g id="folder-closed-black-shape" transform="translate(0.000000, 2.000000)">
                        <path d="M25.35296,5.03112484 C24.6550075,4.34364194 23.8194093,3.99995522 22.8462212,3.99995522 L12.1846624,3.99995522 L12.1846624,3.49996766 C12.1846624,2.54163992 11.8355194,1.71870724 11.1375669,1.03138853 C10.4395032,0.34390563 9.60384945,0 8.63077244,0 L3.5538344,0 C2.58053511,0 1.74499254,0.343850903 1.04703998,1.03138853 C0.34897628,1.71870724 0,2.54163992 0,3.49996766 L0,18.5000323 C0,19.4581959 0.34897628,20.2811286 1.04703998,20.9684473 C1.74510368,21.6560944 2.58075739,22 3.5538344,22 L22.8461656,22 C23.8194093,22 24.6550075,21.6561491 25.3529045,20.9684473 C26.0511904,20.2810738 26.4,19.4581412 26.4,18.5000323 L26.4,7.50014179 C26.4000556,6.54175933 26.051246,5.71888138 25.35296,5.03112484 Z" id="Shape"></path>
                    </g>
                </g>
            </g>
        </g>
    </g>
</svg>