<?xml version="1.0" encoding="UTF-8"?>
<svg width="33px" height="31px" viewBox="0 0 33 31" version="1.1" xmlns="http://www.w3.org/2000/svg" xmlns:xlink="http://www.w3.org/1999/xlink">
    <!-- Generator: Sketch 51.1 (57501) - http://www.bohemiancoding.com/sketch -->
    <title>home-icon-silhouette</title>
    <desc>Created with Sketch.</desc>
    <defs></defs>
    <g id="Page-1" stroke="none" stroke-width="1" fill="none" fill-rule="evenodd">
        <g id="Home-page" transform="translate(-40.000000, -33.000000)" fill="#FFFFFF" fill-rule="nonzero">
            <g id="Home" transform="translate(40.000000, 30.000000)">
                <g id="home-icon-silhouette" transform="translate(0.000000, 3.000000)">
                    <path d="M32.4460869,13.7922939 L27.4447736,8.82496822 L27.4447736,3.08687345 C27.4447736,2.04934547 26.598254,1.20851247 25.5520949,1.20851247 C24.5083338,1.20851247 23.6618143,2.04934547 23.6618143,3.08687345 L23.6618143,5.06778312 L19.9379408,1.36908385 C18.0968207,-0.458532083 14.895727,-0.455290222 13.0588035,1.37239187 L0.553654979,13.7922939 C-0.18455166,14.5269394 -0.18455166,15.715644 0.553654979,16.4491647 C1.29219468,17.1836118 2.49136414,17.1836118 3.22963739,16.4491647 L15.7335869,4.02893193 C16.1409261,3.62647798 16.8588824,3.62647798 17.26409,4.02774104 L29.7701711,16.4491647 C30.1410064,16.8164213 30.6244844,16.9990903 31.1078292,16.9990903 C31.5921733,16.9990903 32.0764507,16.8162228 32.4461535,16.4491647 C33.1846266,15.7157101 33.1846266,14.5270055 32.4460869,13.7922939 Z" id="Shape"></path>
                    <path d="M16.6614748,8.26819418 C16.2959732,7.91060194 15.7041608,7.91060194 15.3397314,8.26819418 L4.27375763,19.0974463 C4.09904866,19.2684031 4,19.5018122 4,19.7453896 L4,27.6438417 C4,29.4972729 5.53518724,31 7.42850441,31 L12.9072759,31 L12.9072759,22.6942299 L19.0927241,22.6942299 L19.0927241,31 L24.5715626,31 C26.4648128,31 28,29.4972729 28,27.6439073 L28,19.7453896 C28,19.5018122 27.9018225,19.2684031 27.7262424,19.0974463 L16.6614748,8.26819418 Z" id="Shape"></path>
                </g>
            </g>
        </g>
    </g>
</svg>